<svg width="96" height="195" viewBox="0 0 96 195" fill="none" xmlns="http://www.w3.org/2000/svg">
<rect x="17" width="62" height="17" fill="#337BB5"/>
<rect y="17" width="96" height="178" fill="#98D8F5"/>
<rect x="15.25" y="35.25" width="11.5" height="14.5" fill="#357EBA" stroke="black" stroke-width="0.5"/>
<rect x="41.25" y="35.25" width="11.5" height="14.5" fill="#357EBA" stroke="black" stroke-width="0.5"/>
<rect x="67.25" y="35.25" width="11.5" height="14.5" fill="#357EBA" stroke="black" stroke-width="0.5"/>
<rect x="15.25" y="59.25" width="11.5" height="14.5" fill="#357EBA" stroke="black" stroke-width="0.5"/>
<rect x="41.25" y="59.25" width="11.5" height="14.5" fill="#357EBA" stroke="black" stroke-width="0.5"/>
<rect x="67.25" y="59.25" width="11.5" height="14.5" fill="#357EBA" stroke="black" stroke-width="0.5"/>
<rect x="15.25" y="83.25" width="11.5" height="14.5" fill="#357EBA" stroke="black" stroke-width="0.5"/>
<rect x="41.25" y="83.25" width="11.5" height="14.5" fill="#357EBA" stroke="black" stroke-width="0.5"/>
<rect x="67.25" y="83.25" width="11.5" height="14.5" fill="#357EBA" stroke="black" stroke-width="0.5"/>
<rect x="15.25" y="107.25" width="11.5" height="14.5" fill="#357EBA" stroke="black" stroke-width="0.5"/>
<rect x="41.25" y="107.25" width="11.5" height="14.5" fill="#357EBA" stroke="black" stroke-width="0.5"/>
<rect x="67.25" y="107.25" width="11.5" height="14.5" fill="#357EBA" stroke="black" stroke-width="0.5"/>
<rect x="15.25" y="131.25" width="11.5" height="14.5" fill="#357EBA" stroke="black" stroke-width="0.5"/>
<rect x="41.25" y="131.25" width="11.5" height="14.5" fill="#357EBA" stroke="black" stroke-width="0.5"/>
<rect x="41.25" y="155.25" width="11.5" height="14.5" fill="#357EBA" stroke="black" stroke-width="0.5"/>
<rect x="67.25" y="131.25" width="11.5" height="14.5" fill="#357EBA" stroke="black" stroke-width="0.5"/>
</svg>
