<svg width="96" height="251" viewBox="0 0 96 251" fill="none" xmlns="http://www.w3.org/2000/svg">
<rect y="34" width="96" height="217" fill="#05528F"/>
<rect x="17" y="17" width="62" height="17" fill="#05528F"/>
<rect x="29" width="37" height="17" fill="#05528F"/>
<rect x="15.25" y="52.25" width="11.5" height="14.5" fill="#95D7F3" stroke="black" stroke-width="0.5"/>
<rect x="33.25" y="52.25" width="11.5" height="14.5" fill="#95D7F3" stroke="black" stroke-width="0.5"/>
<rect x="51.25" y="52.25" width="11.5" height="14.5" fill="#95D7F3" stroke="black" stroke-width="0.5"/>
<rect x="69.25" y="52.25" width="11.5" height="14.5" fill="#95D7F3" stroke="black" stroke-width="0.5"/>
<rect x="15.25" y="52.25" width="11.5" height="14.5" fill="#95D7F3" stroke="black" stroke-width="0.5"/>
<rect x="33.25" y="52.25" width="11.5" height="14.5" fill="#95D7F3" stroke="black" stroke-width="0.5"/>
<rect x="51.25" y="52.25" width="11.5" height="14.5" fill="#95D7F3" stroke="black" stroke-width="0.5"/>
<rect x="69.25" y="52.25" width="11.5" height="14.5" fill="#95D7F3" stroke="black" stroke-width="0.5"/>
<rect x="15.25" y="73.25" width="11.5" height="14.5" fill="#95D7F3" stroke="black" stroke-width="0.5"/>
<rect x="33.25" y="73.25" width="11.5" height="14.5" fill="#95D7F3" stroke="black" stroke-width="0.5"/>
<rect x="51.25" y="73.25" width="11.5" height="14.5" fill="#95D7F3" stroke="black" stroke-width="0.5"/>
<rect x="69.25" y="73.25" width="11.5" height="14.5" fill="#95D7F3" stroke="black" stroke-width="0.5"/>
<rect x="15.25" y="52.25" width="11.5" height="14.5" fill="#95D7F3" stroke="black" stroke-width="0.5"/>
<rect x="33.25" y="52.25" width="11.5" height="14.5" fill="#95D7F3" stroke="black" stroke-width="0.5"/>
<rect x="51.25" y="52.25" width="11.5" height="14.5" fill="#95D7F3" stroke="black" stroke-width="0.5"/>
<rect x="69.25" y="52.25" width="11.5" height="14.5" fill="#95D7F3" stroke="black" stroke-width="0.5"/>
<rect x="15.25" y="73.25" width="11.5" height="14.5" fill="#95D7F3" stroke="black" stroke-width="0.5"/>
<rect x="33.25" y="73.25" width="11.5" height="14.5" fill="#95D7F3" stroke="black" stroke-width="0.5"/>
<rect x="51.25" y="73.25" width="11.5" height="14.5" fill="#95D7F3" stroke="black" stroke-width="0.5"/>
<rect x="69.25" y="73.25" width="11.5" height="14.5" fill="#95D7F3" stroke="black" stroke-width="0.5"/>
<rect x="15.25" y="94.25" width="11.5" height="14.5" fill="#95D7F3" stroke="black" stroke-width="0.5"/>
<rect x="33.25" y="94.25" width="11.5" height="14.5" fill="#95D7F3" stroke="black" stroke-width="0.5"/>
<rect x="51.25" y="94.25" width="11.5" height="14.5" fill="#95D7F3" stroke="black" stroke-width="0.5"/>
<rect x="69.25" y="94.25" width="11.5" height="14.5" fill="#95D7F3" stroke="black" stroke-width="0.5"/>
<rect x="15.25" y="115.25" width="11.5" height="14.5" fill="#95D7F3" stroke="black" stroke-width="0.5"/>
<rect x="33.25" y="115.25" width="11.5" height="14.5" fill="#95D7F3" stroke="black" stroke-width="0.5"/>
<rect x="51.25" y="115.25" width="11.5" height="14.5" fill="#95D7F3" stroke="black" stroke-width="0.5"/>
<rect x="69.25" y="115.25" width="11.5" height="14.5" fill="#95D7F3" stroke="black" stroke-width="0.5"/>
<rect x="15.25" y="136.25" width="11.5" height="14.5" fill="#95D7F3" stroke="black" stroke-width="0.5"/>
<rect x="33.25" y="136.25" width="11.5" height="14.5" fill="#95D7F3" stroke="black" stroke-width="0.5"/>
<rect x="51.25" y="136.25" width="11.5" height="14.5" fill="#95D7F3" stroke="black" stroke-width="0.5"/>
<rect x="69.25" y="136.25" width="11.5" height="14.5" fill="#95D7F3" stroke="black" stroke-width="0.5"/>
</svg>
