<svg width="78" height="405" viewBox="0 0 78 405" fill="none" xmlns="http://www.w3.org/2000/svg">
<path d="M8 79L30.5 55.5L39 0L47.5 55.5L70 79V96H8V79Z" fill="#337BB5"/>
<rect y="96" width="78" height="309" fill="#337BB5"/>
<rect x="15.25" y="217.25" width="11.5" height="14.5" fill="#95D7F3" stroke="black" stroke-width="0.5"/>
<rect x="33.25" y="217.25" width="11.5" height="14.5" fill="#95D7F3" stroke="black" stroke-width="0.5"/>
<rect x="51.25" y="217.25" width="11.5" height="14.5" fill="#95D7F3" stroke="black" stroke-width="0.5"/>
<rect x="15.25" y="217.25" width="11.5" height="14.5" fill="#95D7F3" stroke="black" stroke-width="0.5"/>
<rect x="33.25" y="217.25" width="11.5" height="14.5" fill="#95D7F3" stroke="black" stroke-width="0.5"/>
<rect x="51.25" y="217.25" width="11.5" height="14.5" fill="#95D7F3" stroke="black" stroke-width="0.5"/>
<rect x="15.25" y="238.25" width="11.5" height="14.5" fill="#95D7F3" stroke="black" stroke-width="0.5"/>
<rect x="33.25" y="238.25" width="11.5" height="14.5" fill="#95D7F3" stroke="black" stroke-width="0.5"/>
<rect x="51.25" y="238.25" width="11.5" height="14.5" fill="#95D7F3" stroke="black" stroke-width="0.5"/>
<rect x="15.25" y="217.25" width="11.5" height="14.5" fill="#95D7F3" stroke="black" stroke-width="0.5"/>
<rect x="33.25" y="217.25" width="11.5" height="14.5" fill="#95D7F3" stroke="black" stroke-width="0.5"/>
<rect x="51.25" y="217.25" width="11.5" height="14.5" fill="#95D7F3" stroke="black" stroke-width="0.5"/>
<rect x="15.25" y="238.25" width="11.5" height="14.5" fill="#95D7F3" stroke="black" stroke-width="0.5"/>
<rect x="33.25" y="238.25" width="11.5" height="14.5" fill="#95D7F3" stroke="black" stroke-width="0.5"/>
<rect x="51.25" y="238.25" width="11.5" height="14.5" fill="#95D7F3" stroke="black" stroke-width="0.5"/>
<rect x="15.25" y="259.25" width="11.5" height="14.5" fill="#95D7F3" stroke="black" stroke-width="0.5"/>
<rect x="33.25" y="259.25" width="11.5" height="14.5" fill="#95D7F3" stroke="black" stroke-width="0.5"/>
<rect x="51.25" y="259.25" width="11.5" height="14.5" fill="#95D7F3" stroke="black" stroke-width="0.5"/>
<rect x="15.25" y="280.25" width="11.5" height="14.5" fill="#95D7F3" stroke="black" stroke-width="0.5"/>
<rect x="33.25" y="280.25" width="11.5" height="14.5" fill="#95D7F3" stroke="black" stroke-width="0.5"/>
<rect x="51.25" y="280.25" width="11.5" height="14.5" fill="#95D7F3" stroke="black" stroke-width="0.5"/>
<rect x="15.25" y="301.25" width="11.5" height="14.5" fill="#95D7F3" stroke="black" stroke-width="0.5"/>
<rect x="33.25" y="301.25" width="11.5" height="14.5" fill="#95D7F3" stroke="black" stroke-width="0.5"/>
<rect x="51.25" y="301.25" width="11.5" height="14.5" fill="#95D7F3" stroke="black" stroke-width="0.5"/>
<rect x="15.25" y="112.25" width="11.5" height="14.5" fill="#95D7F3" stroke="black" stroke-width="0.5"/>
<rect x="33.25" y="112.25" width="11.5" height="14.5" fill="#95D7F3" stroke="black" stroke-width="0.5"/>
<rect x="51.25" y="112.25" width="11.5" height="14.5" fill="#95D7F3" stroke="black" stroke-width="0.5"/>
<rect x="15.25" y="112.25" width="11.5" height="14.5" fill="#95D7F3" stroke="black" stroke-width="0.5"/>
<rect x="33.25" y="112.25" width="11.5" height="14.5" fill="#95D7F3" stroke="black" stroke-width="0.5"/>
<rect x="51.25" y="112.25" width="11.5" height="14.5" fill="#95D7F3" stroke="black" stroke-width="0.5"/>
<rect x="15.25" y="133.25" width="11.5" height="14.5" fill="#95D7F3" stroke="black" stroke-width="0.5"/>
<rect x="33.25" y="133.25" width="11.5" height="14.5" fill="#95D7F3" stroke="black" stroke-width="0.5"/>
<rect x="51.25" y="133.25" width="11.5" height="14.5" fill="#95D7F3" stroke="black" stroke-width="0.5"/>
<rect x="15.25" y="112.25" width="11.5" height="14.5" fill="#95D7F3" stroke="black" stroke-width="0.5"/>
<rect x="33.25" y="112.25" width="11.5" height="14.5" fill="#95D7F3" stroke="black" stroke-width="0.5"/>
<rect x="51.25" y="112.25" width="11.5" height="14.5" fill="#95D7F3" stroke="black" stroke-width="0.5"/>
<rect x="15.25" y="133.25" width="11.5" height="14.5" fill="#95D7F3" stroke="black" stroke-width="0.5"/>
<rect x="33.25" y="133.25" width="11.5" height="14.5" fill="#95D7F3" stroke="black" stroke-width="0.5"/>
<rect x="51.25" y="133.25" width="11.5" height="14.5" fill="#95D7F3" stroke="black" stroke-width="0.5"/>
<rect x="15.25" y="154.25" width="11.5" height="14.5" fill="#95D7F3" stroke="black" stroke-width="0.5"/>
<rect x="33.25" y="154.25" width="11.5" height="14.5" fill="#95D7F3" stroke="black" stroke-width="0.5"/>
<rect x="51.25" y="154.25" width="11.5" height="14.5" fill="#95D7F3" stroke="black" stroke-width="0.5"/>
<rect x="15.25" y="175.25" width="11.5" height="14.5" fill="#95D7F3" stroke="black" stroke-width="0.5"/>
<rect x="33.25" y="175.25" width="11.5" height="14.5" fill="#95D7F3" stroke="black" stroke-width="0.5"/>
<rect x="51.25" y="175.25" width="11.5" height="14.5" fill="#95D7F3" stroke="black" stroke-width="0.5"/>
<rect x="15.25" y="196.25" width="11.5" height="14.5" fill="#95D7F3" stroke="black" stroke-width="0.5"/>
<rect x="33.25" y="196.25" width="11.5" height="14.5" fill="#95D7F3" stroke="black" stroke-width="0.5"/>
<rect x="51.25" y="196.25" width="11.5" height="14.5" fill="#95D7F3" stroke="black" stroke-width="0.5"/>
</svg>
