<svg width="36" height="36" viewBox="0 0 36 36" fill="none" xmlns="http://www.w3.org/2000/svg">
<g clip-path="url(#clip0_1969_6116)">
<mask id="mask0_1969_6116" style="mask-type:luminance" maskUnits="userSpaceOnUse" x="0" y="0" width="36" height="36">
<path d="M36 0H0V36H36V0Z" fill="white"/>
</mask>
<g mask="url(#mask0_1969_6116)">
<path d="M17.8364 9C20.6778 9 23.3627 9.33397 25.7411 9.92727C26.3369 12.2961 26.6727 14.9701 26.6727 17.7999C26.6727 20.6297 26.3369 23.3036 25.7411 25.6724C23.3627 26.2656 20.6778 26.6001 17.8364 26.6001V35.4C17.6054 35.4 17.3766 35.3821 17.1501 35.3474C17.0782 35.3363 17.0065 35.3239 16.9351 35.3095C16.8948 35.3014 16.8546 35.2924 16.8145 35.2833C16.7485 35.268 16.6827 35.2516 16.6172 35.2335C16.6068 35.2307 16.5964 35.2281 16.5861 35.225C16.5215 35.2069 16.4572 35.1873 16.393 35.1663C16.2462 35.1183 16.1007 35.0627 15.9565 35.0005C15.9487 34.9972 15.9408 34.994 15.933 34.9905C13.3007 33.8393 11.108 30.3506 9.93133 25.6724C9.33559 23.3036 9 20.6296 9 17.7999C9 14.9701 9.33552 12.2963 9.93133 9.92749C12.3099 9.33412 14.9948 9 17.8364 9ZM17.9455 14.6727C17.2029 14.6727 16.47 14.6796 15.7489 14.693C15.1699 14.7037 14.7037 15.1699 14.693 15.7489C14.6796 16.47 14.6727 17.2029 14.6727 17.9455C14.6727 18.6879 14.6796 19.4207 14.693 20.1418C14.7037 20.7208 15.1699 21.1869 15.7489 21.1977C16.47 21.2112 17.2029 21.2182 17.9455 21.2182C18.6879 21.2182 19.4207 21.2112 20.1418 21.1977C20.7208 21.1869 21.1869 20.7208 21.1977 20.1418C21.2112 19.4207 21.2182 18.6879 21.2182 17.9455C21.2182 17.2029 21.2112 16.47 21.1977 15.7489C21.1869 15.1699 20.7208 14.7037 20.1418 14.693C19.4207 14.6796 18.6879 14.6727 17.9455 14.6727Z" fill="#040404"/>
<path fill-rule="evenodd" clip-rule="evenodd" d="M18 0C27.941 0 36 8.05887 36 18C36 27.941 27.941 36 18 36C8.05887 36 0 27.941 0 18C0 8.05887 8.05887 0 18 0ZM18 9.78641C15.5641 9.79034 13.112 10.0314 10.7473 10.5853C10.6672 10.604 10.6048 10.6664 10.5861 10.7465C10.0744 12.9427 9.78641 15.4003 9.78641 18C9.78641 22.762 10.7527 27.0473 12.2904 30.1228C13.6536 32.8492 15.3985 34.5087 17.2295 34.8744C17.3591 34.9001 17.4757 34.798 17.4757 34.6658V26.4308C17.4757 26.3088 17.5754 26.2108 17.6972 26.2119C17.7981 26.213 17.8991 26.2135 18 26.2137C20.3868 26.186 22.8731 25.9774 25.2449 25.4407C25.3257 25.4225 25.3887 25.3599 25.4075 25.2794C25.9231 23.0767 26.2137 20.6099 26.2137 18C26.2137 15.39 25.9231 12.9233 25.4075 10.7204C25.3887 10.6399 25.3257 10.5773 25.2449 10.5591C22.8731 10.0224 20.3867 9.81406 18 9.78641ZM24.9718 26.9068C25.0196 26.7497 24.881 26.6001 24.7198 26.6313C22.7426 27.0153 20.718 27.1859 18.7368 27.245C18.6185 27.2485 18.5243 27.3452 18.5243 27.4634V34.6658C18.5243 34.798 18.6409 34.9001 18.7705 34.8744C20.6015 34.5087 22.3464 32.8492 23.7096 30.1228C24.1903 29.1615 24.6151 28.0822 24.9718 26.9068ZM2.10333 22.4498C1.93884 22.2847 1.63455 22.4404 1.69857 22.6647C3.31167 28.3126 7.78062 32.7554 13.4439 34.332C13.6643 34.3933 13.817 34.1029 13.657 33.9393C12.7845 33.0473 12.0092 31.9054 11.3524 30.5917C10.7284 29.3437 10.1981 27.9183 9.78155 26.3588C9.76165 26.2844 9.70468 26.2257 9.63057 26.2043C7.06486 25.4666 4.07204 24.4268 2.10333 22.4498ZM34.4114 22.26C34.4489 22.1149 34.2596 22.0178 34.1553 22.1256C31.9039 24.2393 29.2102 25.5089 26.3605 26.2582C26.2841 26.2783 26.2241 26.3378 26.2036 26.414C25.7893 27.9519 25.2641 29.3585 24.6476 30.5917C23.9908 31.9054 23.2154 33.0473 22.3429 33.9393C22.1828 34.1029 22.3355 34.3933 22.5561 34.332C28.3538 32.7181 32.8999 28.0999 34.4114 22.26ZM27.4732 18.5243C27.3539 18.5243 27.2568 18.6201 27.2544 18.7393C27.211 20.8587 26.9812 22.8871 26.5953 24.7601C26.5621 24.9216 26.7118 25.0619 26.8695 25.0141C29.3149 24.276 31.5759 23.1305 33.3973 21.4011C34.1236 20.6486 34.6802 19.7393 34.8755 18.7706C34.9015 18.641 34.7993 18.5243 34.6671 18.5243H27.4732ZM1.36723 18.5243C1.23234 18.5243 1.12956 18.646 1.1585 18.7778C1.87724 22.049 5.66099 23.9204 9.12024 24.9729C9.27847 25.0211 9.42901 24.8808 9.39587 24.7187C9.0151 22.8572 8.78869 20.8431 8.74556 18.7393C8.74311 18.62 8.64602 18.5243 8.52674 18.5243H1.36723ZM9.39722 11.275C9.43034 11.1133 9.2803 10.9731 9.12227 11.021C8.67447 11.1566 8.23078 11.3043 7.79206 11.4652C4.94518 12.5307 1.71338 14.3914 1.13751 17.2272C1.11105 17.3575 1.21344 17.4757 1.3464 17.4757H8.52674C8.64602 17.4757 8.74311 17.3799 8.74556 17.2607C8.78873 15.1545 9.01566 13.1383 9.39722 11.275ZM26.8695 10.9856C26.7118 10.938 26.5621 11.0782 26.5953 11.2397C26.9812 13.1128 27.211 15.1412 27.2544 17.2607C27.2568 17.3799 27.3539 17.4757 27.4732 17.4757H34.6671C34.7993 17.4757 34.9015 17.359 34.8755 17.2294C34.6802 16.2607 34.1236 15.3514 33.3973 14.5989C31.5759 12.8694 29.3149 11.7238 26.8695 10.9856ZM22.5561 1.66788C22.3355 1.60652 22.1828 1.89696 22.3429 2.06052C23.2154 2.95246 23.9908 4.09462 24.6476 5.40827C25.2641 6.64148 25.7893 8.04794 26.2036 9.5858C26.2241 9.66207 26.2841 9.72155 26.3605 9.74164C29.2102 10.4909 31.9039 11.7607 34.1553 13.8744C34.2596 13.9821 34.4489 13.8849 34.4114 13.7399C32.8999 7.90012 28.3538 3.2818 22.5561 1.66788ZM13.657 2.06052C13.817 1.89696 13.6643 1.60652 13.4438 1.66788C7.76775 3.24796 3.2914 7.7076 1.68762 13.3738C1.62492 13.5953 1.92061 13.7505 2.0857 13.59C3.57735 12.1402 5.62804 11.185 7.42804 10.4818C8.15258 10.2165 8.88702 9.98542 9.62884 9.78574C9.70477 9.76529 9.76405 9.70588 9.78436 9.62996C10.2005 8.07484 10.7299 6.65326 11.3524 5.40827C12.0092 4.09466 12.7845 2.95248 13.657 2.06052ZM17.4757 1.33398C17.4757 1.20183 17.3591 1.0996 17.2295 1.12547C15.3985 1.491 13.6536 3.15081 12.2904 5.87723C11.8059 6.84613 11.3781 7.93505 11.0194 9.1212C10.9716 9.27927 11.112 9.42923 11.2737 9.39594C13.2451 8.9901 15.2554 8.78889 17.2609 8.74656C17.3801 8.74405 17.4757 8.647 17.4757 8.52781V1.33398ZM18.5243 8.53636C18.5243 8.65466 18.6185 8.75136 18.7368 8.75487C20.718 8.81402 22.7426 8.98453 24.7198 9.36851C24.881 9.39982 25.0196 9.25008 24.9718 9.0929C24.6151 7.91775 24.1903 6.83841 23.7096 5.87723C22.3464 3.15081 20.6015 1.491 18.7705 1.12547C18.6409 1.0996 18.5243 1.20183 18.5243 1.33398V8.53636Z" fill="#040404"/>
</g>
</g>
<defs>
<clipPath id="clip0_1969_6116">
<rect width="36" height="36" fill="white"/>
</clipPath>
</defs>
</svg>
