<svg width="24" height="25" viewBox="0 0 24 25" fill="none" xmlns="http://www.w3.org/2000/svg">
<g clip-path="url(#clip0_1905_6178)">
<mask id="mask0_1905_6178" style="mask-type:luminance" maskUnits="userSpaceOnUse" x="0" y="0" width="24" height="25">
<path d="M24 0.5H0V24.5H24V0.5Z" fill="white"/>
</mask>
<g mask="url(#mask0_1905_6178)">
<path d="M11.8909 6.5C13.7852 6.5 15.5751 6.72265 17.1607 7.11818C17.558 8.6974 17.7818 10.4801 17.7818 12.3666C17.7818 14.2532 17.558 16.0357 17.1607 17.6149C15.5751 18.0104 13.7852 18.2334 11.8909 18.2334V24.1C11.7369 24.1 11.5844 24.0881 11.4334 24.0649C11.3855 24.0575 11.3376 24.0492 11.2901 24.0396C11.2632 24.0343 11.2364 24.0283 11.2097 24.0222C11.1657 24.012 11.1218 24.0011 11.0781 23.989C11.0712 23.9871 11.0643 23.9854 11.0574 23.9833C11.0143 23.9713 10.9714 23.9582 10.9287 23.9442C10.8308 23.9122 10.7338 23.8751 10.6376 23.8337C10.6325 23.8315 10.6272 23.8293 10.622 23.827C8.86713 23.0596 7.40532 20.7337 6.62089 17.6149L6.62074 17.6148C6.22358 16.0356 6 14.2531 6 12.3666C6 10.4801 6.22368 8.69754 6.62089 7.11833C8.20663 6.72275 9.99655 6.5 11.8909 6.5ZM11.9636 10.2818C11.4686 10.2818 10.98 10.2864 10.4993 10.2953C10.1133 10.3025 9.80249 10.6133 9.79532 10.9993C9.78639 11.48 9.78182 11.9686 9.78182 12.4636C9.78182 12.9586 9.78639 13.4472 9.79532 13.9278C9.80249 14.3139 10.1133 14.6246 10.4993 14.6318C10.98 14.6408 11.4686 14.6455 11.9636 14.6455C12.4586 14.6455 12.9472 14.6408 13.4278 14.6318C13.8139 14.6246 14.1246 14.3139 14.1318 13.9278C14.1408 13.4472 14.1455 12.9586 14.1455 12.4636C14.1455 11.9686 14.1408 11.48 14.1318 10.9993C14.1246 10.6133 13.8139 10.3025 13.4278 10.2953C12.9472 10.2864 12.4586 10.2818 11.9636 10.2818Z" fill="url(#paint0_linear_1905_6178)"/>
<path fill-rule="evenodd" clip-rule="evenodd" d="M12 0.5C18.6273 0.5 24 5.87258 24 12.5C24 19.1273 18.6273 24.5 12 24.5C5.37258 24.5 0 19.1273 0 12.5C0 5.87258 5.37258 0.5 12 0.5ZM12 7.02428C10.3761 7.02689 8.74134 7.18758 7.16486 7.55684C7.11149 7.56935 7.06986 7.61095 7.05743 7.66435C6.71629 9.12849 6.52428 10.7669 6.52428 12.5C6.52428 15.6747 7.16844 18.5316 8.19357 20.5819C9.10237 22.3995 10.2657 23.5058 11.4864 23.7496C11.5728 23.7668 11.6505 23.6987 11.6505 23.6105V18.1205C11.6505 18.0392 11.717 17.9739 11.7982 17.9746C11.8654 17.9753 11.9327 17.9756 12 17.9758C13.5912 17.9573 15.2487 17.8183 16.83 17.4604C16.8838 17.4484 16.9258 17.4066 16.9383 17.3529C17.282 15.8844 17.4758 14.24 17.4758 12.5C17.4758 10.76 17.282 9.11553 16.9383 7.64695C16.9258 7.59325 16.8838 7.55155 16.83 7.53937C15.2487 7.18163 13.5912 7.04271 12 7.02428ZM16.6479 18.4379C16.6797 18.3332 16.5873 18.2334 16.4799 18.2542C15.1617 18.5102 13.812 18.6239 12.4912 18.6633C12.4124 18.6657 12.3495 18.7301 12.3495 18.8089V23.6105C12.3495 23.6987 12.4272 23.7668 12.5136 23.7496C13.7343 23.5058 14.8976 22.3995 15.8064 20.5819C16.1268 19.941 16.41 19.2215 16.6479 18.4379ZM1.40222 15.4665C1.29256 15.3564 1.0897 15.4603 1.13238 15.6098C2.20778 19.3751 5.18708 22.3369 8.96257 23.388C9.10953 23.4289 9.21133 23.2353 9.10467 23.1262C8.52303 22.5316 8.00612 21.7703 7.56826 20.8945C7.15226 20.0625 6.79875 19.1122 6.52103 18.0725C6.50777 18.0229 6.46979 17.9838 6.42038 17.9695C4.70991 17.4777 2.71469 16.7845 1.40222 15.4665ZM22.9409 15.34C22.966 15.2433 22.8397 15.1785 22.7702 15.2504C21.2692 16.6596 19.4735 17.506 17.5737 18.0055C17.5228 18.0188 17.4828 18.0585 17.4691 18.1093C17.1929 19.1346 16.8428 20.0724 16.4317 20.8945C15.9939 21.7703 15.4769 22.5316 14.8953 23.1262C14.7885 23.2353 14.8903 23.4289 15.0374 23.388C18.9025 22.3121 21.9332 19.2332 22.9409 15.34ZM18.3155 12.8495C18.2359 12.8495 18.1712 12.9134 18.1696 12.9929C18.1407 14.4058 17.9875 15.758 17.7302 17.0068C17.7081 17.1144 17.8079 17.2079 17.913 17.1761C19.5433 16.684 21.0506 15.9204 22.2649 14.7674C22.7491 14.2658 23.1201 13.6595 23.2503 13.0137C23.2676 12.9273 23.1996 12.8495 23.1114 12.8495H18.3155ZM0.911487 12.8495C0.821558 12.8495 0.753039 12.9307 0.772336 13.0185C1.25149 15.1993 3.77399 16.4469 6.08016 17.1486C6.18564 17.1807 6.28601 17.0872 6.26391 16.9791C6.01007 15.7381 5.85913 14.3954 5.83037 12.9929C5.82874 12.9134 5.76401 12.8495 5.68449 12.8495H0.911487ZM6.26481 8.01668C6.28689 7.90884 6.18686 7.8154 6.08151 7.84732C5.78298 7.9377 5.48719 8.03622 5.19471 8.14348C3.29679 8.8538 1.14225 10.0943 0.758342 11.9848C0.740701 12.0717 0.808959 12.1505 0.897603 12.1505H5.68449C5.76401 12.1505 5.82874 12.0866 5.83037 12.0071C5.85916 10.603 6.01044 9.25887 6.26481 8.01668ZM17.913 7.82375C17.8079 7.79197 17.7081 7.88545 17.7302 7.99316C17.9875 9.24189 18.1407 10.5941 18.1696 12.0071C18.1712 12.0866 18.2359 12.1505 18.3155 12.1505H23.1114C23.1996 12.1505 23.2676 12.0727 23.2503 11.9863C23.1201 11.3405 22.7491 10.7342 22.2649 10.2326C21.0506 9.07961 19.5433 8.31585 17.913 7.82375ZM15.0374 1.61192C14.8903 1.57101 14.7885 1.76464 14.8953 1.87368C15.4769 2.46831 15.9939 3.22975 16.4317 4.10551C16.8428 4.92765 17.1929 5.86529 17.4691 6.89053C17.4828 6.94138 17.5228 6.98103 17.5737 6.99443C19.4735 7.49392 21.2692 8.34045 22.7702 9.74961C22.8397 9.82141 22.966 9.75663 22.9409 9.65993C21.9332 5.76675 18.9025 2.68787 15.0374 1.61192ZM9.10467 1.87368C9.21133 1.76464 9.10951 1.57101 8.96256 1.61192C5.1785 2.66531 2.19427 5.6384 1.12508 9.41585C1.08328 9.56353 1.2804 9.667 1.39047 9.56001C2.3849 8.59344 3.75203 7.95668 4.95203 7.4879C5.43505 7.31098 5.92468 7.15695 6.41923 7.02383C6.46985 7.0102 6.50937 6.97059 6.52291 6.91997C6.80033 5.88323 7.15326 4.93551 7.56826 4.10551C8.00612 3.22977 8.52301 2.46832 9.10467 1.87368ZM11.6505 1.38932C11.6505 1.30122 11.5728 1.23307 11.4864 1.25031C10.2656 1.494 9.10239 2.60054 8.19357 4.41815C7.8706 5.06409 7.58538 5.79004 7.34627 6.5808C7.3144 6.68618 7.40799 6.78615 7.51583 6.76396C8.83008 6.4934 10.1703 6.35926 11.5073 6.33104C11.5867 6.32937 11.6505 6.26467 11.6505 6.18521V1.38932ZM12.3495 6.19091C12.3495 6.26977 12.4124 6.33424 12.4912 6.33658C13.812 6.37601 15.1617 6.48969 16.4799 6.74567C16.5873 6.76655 16.6797 6.66672 16.6479 6.56193C16.41 5.7785 16.1268 5.05894 15.8064 4.41815C14.8976 2.60054 13.7344 1.494 12.5136 1.25031C12.4272 1.23307 12.3495 1.30122 12.3495 1.38932V6.19091Z" fill="#F4F4F4"/>
</g>
</g>
<defs>
<linearGradient id="paint0_linear_1905_6178" x1="13.9336" y1="9.125" x2="11.3086" y2="17.75" gradientUnits="userSpaceOnUse">
<stop stop-color="#0D4AE4"/>
<stop offset="1" stop-color="#07297E"/>
</linearGradient>
<clipPath id="clip0_1905_6178">
<rect width="24" height="24" fill="white" transform="translate(0 0.5)"/>
</clipPath>
</defs>
</svg>
